<svg id="visual" viewBox="0 0 900 600" width="900" height="600" xmlns="http://www.w3.org/2000/svg" xmlns:xlink="http://www.w3.org/1999/xlink" version="1.1"><g><g transform="translate(315 527)"><path d="M80.6 -63.6C97.5 -43.2 99.3 -10 89.4 15.1C79.4 40.2 57.6 57.2 33.5 68.2C9.5 79.2 -16.7 84.2 -39.1 75.6C-61.6 67 -80.1 44.8 -84.2 21C-88.2 -2.8 -77.7 -28.2 -61.3 -48.6C-44.8 -69 -22.4 -84.4 4.7 -88.2C31.9 -92 63.8 -84.1 80.6 -63.6Z" fill="#184D47"></path></g><g transform="translate(578 169)"><path d="M71.1 -59.2C87.9 -35.7 94.3 -6.4 88.9 21.4C83.5 49.3 66.2 75.5 42.3 86.6C18.3 97.8 -12.5 93.7 -39.5 81.1C-66.6 68.4 -90.1 47.2 -98.6 19.7C-107.1 -7.8 -100.7 -41.5 -81.8 -65.5C-62.9 -89.4 -31.4 -103.7 -2.1 -102C27.2 -100.3 54.4 -82.6 71.1 -59.2Z" fill="#184D47"></path></g><g transform="translate(7 358)"><path d="M70.5 -56.4C87.4 -35 94.4 -6 88.2 19.8C82 45.5 62.8 67.9 38.3 79.6C13.9 91.4 -15.6 92.6 -37.3 80.8C-59 69.1 -72.9 44.4 -77 19.5C-81.2 -5.4 -75.6 -30.7 -61.2 -51.4C-46.7 -72.2 -23.4 -88.5 1.7 -89.9C26.8 -91.2 53.6 -77.7 70.5 -56.4Z" fill="#184D47"></path></g><g transform="translate(713 444)"><path d="M62.8 -51C77.3 -32 82 -6.1 75.2 14.6C68.4 35.3 50.2 50.9 29.2 61.3C8.2 71.7 -15.7 76.9 -34.6 68.9C-53.5 61 -67.4 39.7 -73.5 15.9C-79.7 -8 -78.1 -34.5 -64.6 -53.3C-51.1 -72.1 -25.5 -83.2 -0.7 -82.6C24.2 -82.1 48.4 -70 62.8 -51Z" fill="#184D47"></path></g><g transform="translate(871 163)"><path d="M56.6 -51.4C69.6 -28.7 74 -5.4 72.3 22.3C70.6 50 62.8 82.1 40.8 97.8C18.8 113.4 -17.5 112.5 -39.7 96.4C-62 80.4 -70.3 49.1 -73.1 21.2C-75.9 -6.8 -73.3 -31.6 -60.2 -54.3C-47.1 -77 -23.6 -97.6 -0.9 -96.9C21.7 -96.1 43.5 -74.1 56.6 -51.4Z" fill="#184D47"></path></g></g></svg>